<svg width="32" height="28" viewBox="0 0 32 28" fill="none" xmlns="http://www.w3.org/2000/svg">
<g clip-path="url(#clip0_15_2564)">
<path d="M15.8139 28H12.127L9.15485 12.1828L7.90731 5.53172L6.5067 13.1052L6.48069 13.2387L3.67948 28H0L2.58277 15.9264V6.50578H4.5986L5.99029 0H9.78791L15.8139 28Z" fill="#C60013"/>
<path d="M27.2084 10.3924V14.7554L22.1558 18.4857V27.9999H18.5796V16.7013L22.1558 14.0615L27.1787 10.3525L27.2084 10.3924Z" fill="#C60013"/>
<path d="M32 0V17.3642L28.4238 14.5608V0H32Z" fill="#C60013"/>
<path d="M22.1558 0V12.4534L18.5796 14.8786V0H22.1558Z" fill="#C60013"/>
<path d="M26.6302 19.1768H24.5148C24.2739 19.1768 24.0786 19.3705 24.0786 19.6096V21.7089C24.0786 21.9479 24.2739 22.1417 24.5148 22.1417H26.6302C26.8711 22.1417 27.0663 21.9479 27.0663 21.7089V19.6096C27.0663 19.3705 26.8711 19.1768 26.6302 19.1768Z" fill="#474747"/>
<path d="M30.2005 19.1768H28.0851C27.8442 19.1768 27.6489 19.3705 27.6489 19.6096V21.7089C27.6489 21.9479 27.8442 22.1417 28.0851 22.1417H30.2005C30.4414 22.1417 30.6366 21.9479 30.6366 21.7089V19.6096C30.6366 19.3705 30.4414 19.1768 30.2005 19.1768Z" fill="#474747"/>
<path d="M26.6302 22.7964H24.5148C24.2739 22.7964 24.0786 22.9902 24.0786 23.2292V25.3285C24.0786 25.5675 24.2739 25.7613 24.5148 25.7613H26.6302C26.8711 25.7613 27.0663 25.5675 27.0663 25.3285V23.2292C27.0663 22.9902 26.8711 22.7964 26.6302 22.7964Z" fill="#474747"/>
<path d="M30.2005 22.7964H28.0851C27.8442 22.7964 27.6489 22.9902 27.6489 23.2292V25.3285C27.6489 25.5675 27.8442 25.7613 28.0851 25.7613H30.2005C30.4414 25.7613 30.6366 25.5675 30.6366 25.3285V23.2292C30.6366 22.9902 30.4414 22.7964 30.2005 22.7964Z" fill="#474747"/>
</g>
<defs>
<clipPath id="clip0_15_2564">
<rect width="32" height="28" fill="white"/>
</clipPath>
</defs>
</svg>
