<svg width="26" height="26" viewBox="0 0 26 26" fill="none" xmlns="http://www.w3.org/2000/svg">
<path d="M21.125 22.2083C20.6104 12.0976 5.38958 12.0976 4.875 22.2083M10.8333 20.0417H15.1667M16.25 8.125C16.25 8.98695 15.9076 9.8136 15.2981 10.4231C14.6886 11.0326 13.862 11.375 13 11.375C12.138 11.375 11.3114 11.0326 10.7019 10.4231C10.0924 9.8136 9.75 8.98695 9.75 8.125C9.75 7.26305 10.0924 6.4364 10.7019 5.8269C11.3114 5.21741 12.138 4.875 13 4.875C13.862 4.875 14.6886 5.21741 15.2981 5.8269C15.9076 6.4364 16.25 7.26305 16.25 8.125Z" stroke="#00BD0D" stroke-linecap="round" stroke-linejoin="round"/>
</svg>
