<svg width="24" height="24" viewBox="0 0 24 24" fill="none" xmlns="http://www.w3.org/2000/svg">
<path d="M7.5 9.75H16.5V11.25H7.5V9.75ZM7.5 15H13.5V13.5H7.5V15ZM7.5 18.75H11.25V17.25H7.5V18.75ZM5.25 5.25H7.5V7.5H16.5V5.25H18.75V9.75H20.25V5.25C20.25 4.85218 20.092 4.47064 19.8107 4.18934C19.5294 3.90804 19.1478 3.75 18.75 3.75H16.5V3C16.5 2.60218 16.342 2.22064 16.0607 1.93934C15.7794 1.65804 15.3978 1.5 15 1.5H9C8.60217 1.5 8.22064 1.65804 7.93934 1.93934C7.65804 2.22064 7.5 2.60218 7.5 3V3.75H5.25C4.85218 3.75 4.47064 3.90804 4.18934 4.18934C3.90804 4.47064 3.75 4.85218 3.75 5.25V21C3.75 21.3978 3.90804 21.7794 4.18934 22.0607C4.47064 22.342 4.85218 22.5 5.25 22.5H9V21H5.25V5.25ZM9 3H15V6H9V3ZM22.4325 21.702L17.7217 13.0275C17.6752 12.9432 17.6069 12.873 17.524 12.8241C17.4411 12.7752 17.3466 12.7494 17.2504 12.7494C17.1541 12.7494 17.0596 12.7752 16.9767 12.8241C16.8938 12.873 16.8255 12.9432 16.779 13.0275L12.0667 21.7013C12.0219 21.7834 11.9992 21.8758 12.0008 21.9693C12.0024 22.0629 12.0283 22.1544 12.0759 22.2349C12.1236 22.3155 12.1913 22.3822 12.2726 22.4287C12.3538 22.4752 12.4457 22.4997 12.5392 22.5H21.9592C22.0528 22.4999 22.1448 22.4755 22.2261 22.4292C22.3075 22.3829 22.3753 22.3162 22.4231 22.2358C22.4709 22.1553 22.497 22.0638 22.4988 21.9702C22.5005 21.8766 22.4772 21.7842 22.4325 21.702ZM16.6875 15.75H17.8125V18.75H16.6875V15.75ZM17.25 21C17.1496 21.0032 17.0495 20.9861 16.9558 20.9499C16.8621 20.9137 16.7766 20.8589 16.7044 20.789C16.6322 20.7191 16.5749 20.6354 16.5357 20.5429C16.4965 20.4503 16.4763 20.3509 16.4763 20.2504C16.4763 20.1499 16.4965 20.0504 16.5357 19.9579C16.5749 19.8654 16.6322 19.7816 16.7044 19.7117C16.7766 19.6418 16.8621 19.5871 16.9558 19.5509C17.0495 19.5146 17.1496 19.4976 17.25 19.5007C17.4447 19.5069 17.6294 19.5886 17.7649 19.7285C17.9005 19.8684 17.9763 20.0556 17.9763 20.2504C17.9763 20.4452 17.9005 20.6323 17.7649 20.7723C17.6294 20.9122 17.4447 20.9938 17.25 21Z" fill="#00BD0D"/>
</svg>
