<svg width="21" height="21" viewBox="0 0 21 21" fill="none" xmlns="http://www.w3.org/2000/svg">
<path d="M16.731 0.00599992C17.883 0.0652115 18.9682 0.564514 19.7626 1.40081C20.557 2.2371 21 3.34653 21 4.5V16.5C21 17.6935 20.5259 18.8381 19.682 19.682C18.8381 20.5259 17.6935 21 16.5 21H4.5C3.30653 21 2.16193 20.5259 1.31802 19.682C0.474106 18.8381 0 17.6935 0 16.5V4.5C0 3.30653 0.474106 2.16193 1.31802 1.31802C2.16193 0.474106 3.30653 0 4.5 0H16.5L16.731 0.00599992ZM4.5 2.25C3.90326 2.25 3.33097 2.48705 2.90901 2.90901C2.48705 3.33097 2.25 3.90326 2.25 4.5V16.5C2.25 17.0967 2.48705 17.669 2.90901 18.091C3.33097 18.5129 3.90326 18.75 4.5 18.75H16.5C17.0967 18.75 17.669 18.5129 18.091 18.091C18.5129 17.669 18.75 17.0967 18.75 16.5V4.5C18.7499 3.94304 18.5433 3.4059 18.1701 2.9925C17.7968 2.57909 17.2836 2.31881 16.7295 2.262L16.5 2.25H4.5ZM10.5 13.125C10.8978 13.125 11.2794 13.283 11.5607 13.5643C11.842 13.8456 12 14.2272 12 14.625C12 15.0228 11.842 15.4044 11.5607 15.6857C11.2794 15.967 10.8978 16.125 10.5 16.125C10.1022 16.125 9.72064 15.967 9.43934 15.6857C9.15804 15.4044 9 15.0228 9 14.625C9 14.2272 9.15804 13.8456 9.43934 13.5643C9.72064 13.283 10.1022 13.125 10.5 13.125ZM10.5 4.875C10.7984 4.875 11.0845 4.99353 11.2955 5.2045C11.5065 5.41548 11.625 5.70163 11.625 6V10.5C11.625 10.7984 11.5065 11.0845 11.2955 11.2955C11.0845 11.5065 10.7984 11.625 10.5 11.625C10.2016 11.625 9.91548 11.5065 9.7045 11.2955C9.49353 11.0845 9.375 10.7984 9.375 10.5V6C9.375 5.70163 9.49353 5.41548 9.7045 5.2045C9.91548 4.99353 10.2016 4.875 10.5 4.875Z" fill="#C72B00" fill-opacity="0.99"/>
</svg>
