<svg width="24" height="24" viewBox="0 0 24 24" fill="none" xmlns="http://www.w3.org/2000/svg">
<path d="M15.7635 20.0415L16.512 21.3405L18.7455 20.049V22.5H20.2432V20.049L22.5007 21.354L23.25 20.055L20.9925 18.75L23.2425 17.4487L22.494 16.149L20.2432 17.451V15H18.7455V17.4503L16.4985 16.1512L15.75 17.451L17.9963 18.75L15.7635 20.0415ZM12 17.25C11.7016 17.25 11.4155 17.3685 11.2045 17.5795C10.9935 17.7905 10.875 18.0766 10.875 18.375C10.875 18.6734 10.9935 18.9595 11.2045 19.1705C11.4155 19.3815 11.7016 19.5 12 19.5C12.2984 19.5 12.5845 19.3815 12.7955 19.1705C13.0065 18.9595 13.125 18.6734 13.125 18.375C13.125 18.0766 13.0065 17.7905 12.7955 17.5795C12.5845 17.3685 12.2984 17.25 12 17.25ZM11.25 9H12.75V15.75H11.25V9Z" fill="#474747"/>
<path d="M13.5 22.5H2.25001C2.1212 22.4999 1.99459 22.4667 1.88235 22.4035C1.77012 22.3403 1.67605 22.2493 1.60921 22.1392C1.54237 22.0291 1.505 21.9037 1.50072 21.7749C1.49644 21.6462 1.52538 21.5185 1.58476 21.4042L11.3348 2.65425C11.4638 2.406 11.7323 2.25 12 2.25C12.2678 2.25 12.5363 2.406 12.6653 2.65425L17.7353 12.4042L16.4048 13.0958L12 4.626L3.48526 21H13.5V22.5Z" fill="#474747"/>
</svg>
