<svg width="26" height="26" viewBox="0 0 26 26" fill="none" xmlns="http://www.w3.org/2000/svg">
<path d="M15.5881 12.3954C15.3029 12.3954 15.0609 12.2972 14.8623 12.1008C14.6622 11.9043 14.5622 11.6638 14.5622 11.3793C14.5622 11.0947 14.6608 10.8528 14.858 10.6534C15.0551 10.4541 15.2956 10.3544 15.5795 10.3544C15.8633 10.3544 16.1052 10.4526 16.3053 10.6491C16.5054 10.8455 16.605 11.086 16.6043 11.3706C16.6036 11.6551 16.5054 11.8971 16.3096 12.0964C16.1139 12.2958 15.8734 12.3954 15.5881 12.3954ZM10.4206 12.3954C10.1361 12.3954 9.89414 12.2972 9.69481 12.1008C9.49547 11.9043 9.39581 11.6638 9.39581 11.3793C9.39581 11.0947 9.49403 10.8528 9.69047 10.6534C9.88692 10.4541 10.1278 10.3544 10.4131 10.3544C10.6983 10.3544 10.9403 10.4526 11.1389 10.6491C11.3375 10.8455 11.4372 11.086 11.4379 11.3706C11.4386 11.6551 11.3404 11.8971 11.1432 12.0964C10.9461 12.2958 10.7052 12.3954 10.4206 12.3954ZM13.0001 17.5835C12.1254 17.5835 11.3231 17.3654 10.5929 16.9292C9.86272 16.4929 9.27628 15.9054 8.83356 15.1666H17.1666C16.7238 15.9054 16.1374 16.4929 15.4072 16.9292C14.6778 17.3654 13.8754 17.5835 13.0001 17.5835ZM13.0011 21.6666C11.7994 21.6666 10.6727 21.4405 9.62114 20.9884C8.56958 20.5363 7.652 19.9174 6.86839 19.1316C6.08478 18.3458 5.46583 17.4286 5.01156 16.3799C4.55728 15.3313 4.33122 14.2046 4.33339 12.9999C4.33556 11.7953 4.56161 10.6686 5.01156 9.61992C5.4615 8.57125 6.08045 7.65403 6.86839 6.86825C7.65633 6.08247 8.57356 5.46353 9.62006 5.01142C10.6666 4.55931 11.7932 4.33325 13.0001 4.33325C14.2069 4.33325 15.3336 4.55931 16.3801 5.01142C17.4266 5.46353 18.3438 6.08247 19.1317 6.86825C19.9197 7.65403 20.5382 8.57125 20.9875 9.61992C21.4367 10.6686 21.6631 11.7953 21.6667 12.9999C21.6703 14.2046 21.4443 15.3313 20.9886 16.3799C20.5328 17.4286 19.9139 18.3465 19.1317 19.1338C18.3496 19.921 17.4323 20.5396 16.3801 20.9895C15.3278 21.4394 14.2011 21.6651 13.0001 21.6666M13.0001 20.5833C15.0945 20.5833 16.882 19.843 18.3626 18.3624C19.8431 16.8819 20.5834 15.0944 20.5834 12.9999C20.5834 10.9055 19.8431 9.11797 18.3626 7.63742C16.882 6.15686 15.0945 5.41659 13.0001 5.41659C12.8036 5.41659 12.6075 5.42381 12.4118 5.43825C12.2154 5.45197 12.0283 5.47689 11.8506 5.513C11.7979 5.64878 11.7672 5.76614 11.7586 5.86509C11.7499 5.96331 11.7456 6.08464 11.7456 6.22909C11.7456 6.69131 11.9113 7.08817 12.2428 7.41967C12.5743 7.75117 12.9733 7.91692 13.4399 7.91692C13.6399 7.91692 13.797 7.88983 13.9111 7.83567C14.026 7.7815 14.1556 7.75442 14.3001 7.75442C14.4214 7.75442 14.5225 7.80245 14.6034 7.8985C14.6843 7.99456 14.7247 8.10722 14.7247 8.2365C14.7247 8.48278 14.5864 8.6507 14.3098 8.74025C14.0325 8.82981 13.7403 8.87459 13.4334 8.87459C12.7039 8.87459 12.0807 8.61603 11.5636 8.09892C11.0464 7.58181 10.7879 6.95853 10.7879 6.22909V6.00809C10.7879 5.94236 10.8038 5.85497 10.8356 5.74592C9.26761 6.20453 7.97267 7.09214 6.95072 8.40875C5.92878 9.72536 5.41744 11.2558 5.41672 12.9999C5.41672 15.0944 6.157 16.8819 7.63756 18.3624C9.11811 19.843 10.9056 20.5833 13.0001 20.5833Z" fill="#C72B00" fill-opacity="0.99"/>
</svg>
