<svg width="26" height="26" viewBox="0 0 26 26" fill="none" xmlns="http://www.w3.org/2000/svg">
<path d="M15.5881 12.3954C15.3028 12.3954 15.0609 12.2972 14.8622 12.1008C14.6622 11.9043 14.5622 11.6638 14.5622 11.3793C14.5622 11.0947 14.6607 10.8528 14.8579 10.6534C15.0551 10.4541 15.2956 10.3544 15.5794 10.3544C15.8632 10.3544 16.1052 10.4526 16.3052 10.6491C16.5053 10.8455 16.605 11.086 16.6042 11.3706C16.6035 11.6551 16.5053 11.8971 16.3096 12.0964C16.1139 12.2958 15.8734 12.3954 15.5881 12.3954ZM10.4206 12.3954C10.136 12.3954 9.89408 12.2972 9.69475 12.1008C9.49541 11.9043 9.39575 11.6638 9.39575 11.3793C9.39575 11.0947 9.49397 10.8528 9.69041 10.6534C9.88686 10.4541 10.1277 10.3544 10.413 10.3544C10.6983 10.3544 10.9402 10.4526 11.1388 10.6491C11.3374 10.8455 11.4371 11.086 11.4378 11.3706C11.4385 11.6551 11.3403 11.8971 11.1432 12.0964C10.946 12.2958 10.7051 12.3954 10.4206 12.3954ZM13 17.5835C12.1254 17.5835 11.323 17.3654 10.5928 16.9292C9.86266 16.4929 9.27622 15.9054 8.8335 15.1666H17.1665C16.7238 15.9054 16.1373 16.4929 15.4072 16.9292C14.6777 17.3654 13.8753 17.5835 13 17.5835ZM13.0011 21.6666C11.7993 21.6666 10.6726 21.4405 9.62108 20.9884C8.56952 20.5363 7.65194 19.9174 6.86833 19.1316C6.08472 18.3458 5.46577 17.4286 5.01149 16.3799C4.55722 15.3313 4.33116 14.2046 4.33333 12.9999C4.3355 11.7953 4.56155 10.6686 5.01149 9.61992C5.46144 8.57125 6.08038 7.65403 6.86833 6.86825C7.65627 6.08247 8.57349 5.46353 9.62 5.01142C10.6665 4.55931 11.7932 4.33325 13 4.33325C14.2068 4.33325 15.3335 4.55931 16.38 5.01142C17.4265 5.46353 18.3437 6.08247 19.1317 6.86825C19.9196 7.65403 20.5382 8.57125 20.9874 9.61992C21.4366 10.6686 21.663 11.7953 21.6667 12.9999C21.6703 14.2046 21.4442 15.3313 20.9885 16.3799C20.5328 17.4286 19.9138 18.3465 19.1317 19.1338C18.3495 19.921 17.4323 20.5396 16.38 20.9895C15.3277 21.4394 14.2011 21.6651 13 21.6666M13 20.5833C15.0944 20.5833 16.8819 19.843 18.3625 18.3624C19.8431 16.8819 20.5833 15.0944 20.5833 12.9999C20.5833 10.9055 19.8431 9.11797 18.3625 7.63742C16.8819 6.15686 15.0944 5.41659 13 5.41659C12.8036 5.41659 12.6075 5.42381 12.4117 5.43825C12.2153 5.45197 12.0282 5.47689 11.8506 5.513C11.7979 5.64878 11.7672 5.76614 11.7585 5.86509C11.7498 5.96331 11.7455 6.08464 11.7455 6.22909C11.7455 6.69131 11.9112 7.08817 12.2427 7.41967C12.5742 7.75117 12.9733 7.91692 13.4398 7.91692C13.6399 7.91692 13.797 7.88983 13.9111 7.83567C14.0259 7.7815 14.1555 7.75442 14.3 7.75442C14.4213 7.75442 14.5224 7.80245 14.6033 7.8985C14.6842 7.99456 14.7247 8.10722 14.7247 8.2365C14.7247 8.48278 14.5864 8.6507 14.3097 8.74025C14.0324 8.82981 13.7403 8.87459 13.4333 8.87459C12.7039 8.87459 12.0806 8.61603 11.5635 8.09892C11.0464 7.58181 10.7878 6.95853 10.7878 6.22909V6.00809C10.7878 5.94236 10.8037 5.85497 10.8355 5.74592C9.26755 6.20453 7.97261 7.09214 6.95066 8.40875C5.92872 9.72536 5.41738 11.2558 5.41666 12.9999C5.41666 15.0944 6.15694 16.8819 7.6375 18.3624C9.11805 19.843 10.9056 20.5833 13 20.5833Z" fill="#373737"/>
</svg>
