<svg width="217" height="45" viewBox="0 0 217 45" fill="none" xmlns="http://www.w3.org/2000/svg">
<path d="M49.4945 44.9976H43.7215L39.0684 19.5789L37.1144 8.88974L34.9214 21.0609L34.8816 21.2757L30.4956 44.9976H24.7344L28.7783 25.5953V10.4553H31.9342L34.1131 0H40.0595L49.4945 44.9976Z" fill="white"/>
<path d="M11.4968 44.9976C9.00154 44.9976 6.92336 44.4535 5.26691 43.3629C3.60811 42.2746 2.3523 40.7663 1.49713 38.8404C0.641963 36.9169 0.140576 34.6831 0 32.1391L5.34891 30.669C5.45669 32.2298 5.69567 33.7381 6.07054 35.1915C6.44541 36.6448 7.05925 37.8333 7.91677 38.7593C8.77194 39.6853 9.96683 40.1482 11.4991 40.1482C13.0314 40.1482 14.2544 39.7043 15.0557 38.8142C15.857 37.924 16.2599 36.6448 16.2599 34.9743C16.2599 32.9768 15.8148 31.3707 14.9221 30.1535C14.0295 28.9364 12.9072 27.7121 11.553 26.4759L4.28054 19.9393C2.85369 18.6673 1.80171 17.2783 1.12461 15.7724C0.442814 14.2642 0.105432 12.4027 0.105432 10.188C0.105432 6.95667 1.01449 4.45084 2.8326 2.6705C4.65072 0.890168 7.1272 0 10.2667 0C11.9771 0 13.4836 0.226718 14.7862 0.680155C16.0866 1.13359 17.1737 1.83284 18.0476 2.7779C18.9215 3.72295 19.615 4.91143 20.1328 6.34573C20.6483 7.78002 20.9974 9.46012 21.1754 11.386L16.0421 12.8012C15.9343 11.3502 15.7211 10.0138 15.4001 8.79667C15.0791 7.57955 14.5168 6.5987 13.7155 5.85411C12.9142 5.10952 11.7639 4.73722 10.2667 4.73722C8.76959 4.73722 7.60047 5.14531 6.76404 5.96388C5.92527 6.78007 5.50823 7.99003 5.50823 9.5866C5.50823 10.9302 5.73081 12.0375 6.17597 12.9086C6.62113 13.7797 7.34275 14.6699 8.34084 15.5767L15.6672 22.1134C17.3072 23.5668 18.7505 25.2994 19.9993 27.316C21.248 29.3326 21.8713 31.7191 21.8713 34.4803C21.8713 36.6592 21.4261 38.5397 20.5335 40.1196C19.6408 41.6995 18.4201 42.907 16.8691 43.7423C15.3181 44.5776 13.5257 44.9952 11.4944 44.9952L11.4968 44.9976Z" fill="white"/>
<path d="M52.7347 44.9976V0H69.8053V4.50096H58.8967V19.5002H67.35V23.9438H58.8967V44.9976H52.7347Z" fill="white"/>
<path d="M74.1561 44.9976V0H91.2806V4.66562H80.3181V19.5551H89.2071V23.9987H80.3181V40.4991H91.3884V44.9976H74.1538H74.1561Z" fill="white"/>
<path d="M145.138 44.9976C142.214 44.9976 139.878 44.4177 138.132 43.2531C136.384 42.0908 135.138 40.4298 134.388 38.2677C133.639 36.1079 133.266 33.5734 133.266 30.669V13.9468C133.266 11.0424 133.648 8.54609 134.416 6.4555C135.183 4.36731 136.431 2.77074 138.16 1.66101C139.889 0.55367 142.216 0 145.14 0C148.064 0 150.381 0.563216 152.091 1.68965C153.802 2.81608 155.041 4.41265 155.807 6.48414C156.573 8.55325 156.958 11.0424 156.958 13.9468V30.7263C156.958 33.5949 156.573 36.1007 155.807 38.2438C155.041 40.3869 153.802 42.0479 152.091 43.2292C150.379 44.4105 148.062 45 145.14 45L145.138 44.9976ZM145.138 40.1482C146.743 40.1482 147.954 39.8117 148.774 39.1411C149.594 38.4705 150.147 37.5255 150.433 36.3083C150.718 35.0912 150.861 33.6665 150.861 32.0317V12.6938C150.861 11.0591 150.718 9.65343 150.433 8.4721C150.147 7.29317 149.594 6.38391 148.774 5.7491C147.954 5.11429 146.743 4.79688 145.138 4.79688C143.533 4.79688 142.312 5.11429 141.473 5.7491C140.635 6.38391 140.075 7.29317 139.789 8.4721C139.503 9.65343 139.36 11.0591 139.36 12.6938V32.0341C139.36 33.6689 139.503 35.0936 139.789 36.3107C140.075 37.5278 140.635 38.4729 141.473 39.1435C142.31 39.8165 143.533 40.1506 145.138 40.1506V40.1482Z" fill="white"/>
<path d="M163.53 44.9976L164.347 0H170.401L178.201 36.4993L186.052 0H192.052L192.87 44.9976H187.908L187.418 12.3335L179.947 44.9976H176.456L169.038 12.3335L168.546 44.9976H163.527H163.53Z" fill="white"/>
<path d="M199.768 44.9976V0H216.892V4.66562H205.93V19.5551H214.819V23.9987H205.93V40.4991H217V44.9976H199.765H199.768Z" fill="white"/>
<path d="M122.015 16.7008V23.7124L114.103 29.7073V44.9977H108.506V26.8411L114.103 22.5979L121.968 16.6388L122.015 16.7008Z" fill="white"/>
<path d="M129.517 0V27.9054L123.918 23.3997V0H129.517Z" fill="white"/>
<path d="M114.103 0V20.0133L108.506 23.9104V0H114.103Z" fill="white"/>
<path d="M121.109 30.817H117.8C117.422 30.817 117.116 31.129 117.116 31.5139V34.8836C117.116 35.2685 117.422 35.5805 117.8 35.5805H121.109C121.486 35.5805 121.793 35.2685 121.793 34.8836V31.5139C121.793 31.129 121.486 30.817 121.109 30.817Z" fill="white"/>
<path d="M126.699 30.817H123.39C123.013 30.817 122.706 31.129 122.706 31.5139V34.8836C122.706 35.2685 123.013 35.5805 123.39 35.5805H126.699C127.077 35.5805 127.383 35.2685 127.383 34.8836V31.5139C127.383 31.129 127.077 30.817 126.699 30.817Z" fill="white"/>
<path d="M121.109 36.6354H117.8C117.422 36.6354 117.116 36.9474 117.116 37.3322V40.702C117.116 41.0869 117.422 41.3988 117.8 41.3988H121.109C121.486 41.3988 121.793 41.0869 121.793 40.702V37.3322C121.793 36.9474 121.486 36.6354 121.109 36.6354Z" fill="white"/>
<path d="M126.699 36.6354H123.39C123.013 36.6354 122.706 36.9474 122.706 37.3322V40.702C122.706 41.0869 123.013 41.3988 123.39 41.3988H126.699C127.077 41.3988 127.383 41.0869 127.383 40.702V37.3322C127.383 36.9474 127.077 36.6354 126.699 36.6354Z" fill="white"/>
</svg>
