<svg width="26" height="26" viewBox="0 0 26 26" fill="none" xmlns="http://www.w3.org/2000/svg">
<path d="M24.3272 13.6936C24.2345 13.7486 24.1238 13.7644 24.0194 13.7378C23.9151 13.7111 23.8255 13.6441 23.7706 13.5514C22.9246 12.1296 21.6449 11.3171 20.2606 11.3171C20.2192 11.3165 20.1781 11.3097 20.1387 11.2968C20.0105 11.3101 19.8817 11.3169 19.7528 11.3171C19.645 11.3171 19.5417 11.2743 19.4655 11.1981C19.3893 11.1219 19.3465 11.0186 19.3465 10.9108C19.3465 10.8031 19.3893 10.6997 19.4655 10.6236C19.5417 10.5474 19.645 10.5046 19.7528 10.5046C20.2846 10.5044 20.8057 10.3551 21.257 10.0736C21.7082 9.7921 22.0715 9.38971 22.3055 8.91213C22.5395 8.43455 22.6349 7.90091 22.5809 7.37183C22.5268 6.84274 22.3255 6.33942 21.9997 5.91901C21.674 5.49861 21.2369 5.17798 20.738 4.99354C20.2392 4.80911 19.6987 4.76825 19.1778 4.87561C18.6569 4.98298 18.1765 5.23426 17.7913 5.60092C17.4061 5.96758 17.1314 6.43493 16.9984 6.94988C16.9715 7.05425 16.9042 7.14366 16.8113 7.19841C16.7185 7.25317 16.6077 7.2688 16.5033 7.24187C16.3989 7.21493 16.3095 7.14764 16.2547 7.05478C16.2 6.96193 16.1844 6.85113 16.2113 6.74675C16.3604 6.16866 16.6488 5.63587 17.0512 5.19492C17.4537 4.75398 17.958 4.4183 18.5202 4.2172C19.0823 4.01611 19.6851 3.95573 20.2759 4.04133C20.8668 4.12693 21.4277 4.35591 21.9096 4.70826C22.3915 5.06061 22.7799 5.52562 23.0407 6.06265C23.3015 6.59969 23.4268 7.19242 23.4057 7.78905C23.3846 8.38569 23.2177 8.96808 22.9196 9.48535C22.6215 10.0026 22.2013 10.439 21.6957 10.7564C22.7936 11.1475 23.7787 11.9752 24.4693 13.1411C24.523 13.2334 24.5382 13.3431 24.5115 13.4465C24.4849 13.5499 24.4187 13.6387 24.3272 13.6936ZM19.2957 20.4536C19.3495 20.5468 19.3641 20.6576 19.3363 20.7616C19.3085 20.8655 19.2406 20.9542 19.1475 21.0082C19.0859 21.0443 19.0157 21.0632 18.9443 21.063C18.8731 21.0629 18.8031 21.0441 18.7414 21.0085C18.6798 20.9728 18.6286 20.9216 18.5929 20.8599C18.0454 19.9317 17.2652 19.1623 16.3294 18.6278C15.3936 18.0934 14.3345 17.8123 13.2568 17.8123C12.1792 17.8123 11.1201 18.0934 10.1843 18.6278C9.24849 19.1623 8.46829 19.9317 7.92074 20.8599C7.86453 20.9483 7.77633 21.0116 7.67455 21.0365C7.57278 21.0614 7.46531 21.0461 7.3746 20.9937C7.28388 20.9412 7.21693 20.8558 7.18774 20.7551C7.15855 20.6545 7.16936 20.5465 7.21793 20.4536C8.09975 18.9394 9.5216 17.8147 11.1982 17.3052C10.3098 16.8441 9.60197 16.0981 9.18808 15.1868C8.77419 14.2755 8.6782 13.2517 8.91551 12.2793C9.15283 11.307 9.70969 10.4425 10.4969 9.8243C11.284 9.20614 12.256 8.87013 13.2568 8.87013C14.2577 8.87013 15.2296 9.20614 16.0168 9.8243C16.804 10.4425 17.3608 11.307 17.5982 12.2793C17.8355 13.2517 17.7395 14.2755 17.3256 15.1868C16.9117 16.0981 16.2039 16.8441 15.3155 17.3052C16.9921 17.8147 18.4139 18.9394 19.2957 20.4536ZM13.2568 17.0005C13.98 17.0005 14.6869 16.7861 15.2881 16.3843C15.8894 15.9826 16.358 15.4115 16.6348 14.7434C16.9115 14.0753 16.9839 13.3402 16.8428 12.631C16.7018 11.9217 16.3535 11.2702 15.8422 10.7589C15.3309 10.2476 14.6794 9.89933 13.9701 9.75826C13.2609 9.61718 12.5257 9.68958 11.8577 9.96632C11.1896 10.243 10.6185 10.7117 10.2168 11.3129C9.81502 11.9142 9.60059 12.6211 9.60059 13.3443C9.60059 14.3139 9.9858 15.2439 10.6715 15.9296C11.3572 16.6153 12.2871 17.0005 13.2568 17.0005ZM6.75684 10.5005C6.225 10.5003 5.70387 10.351 5.25263 10.0695C4.80139 9.78804 4.43814 9.38565 4.20412 8.90807C3.97009 8.43049 3.87469 7.89685 3.92874 7.36776C3.98278 6.83868 4.18411 6.33535 4.50987 5.91495C4.83562 5.49455 5.27273 5.17392 5.77156 4.98948C6.2704 4.80504 6.81095 4.76419 7.33184 4.87155C7.85273 4.97891 8.33307 5.2302 8.71831 5.59686C9.10355 5.96352 9.37825 6.43086 9.51121 6.94581C9.53815 7.05019 9.60544 7.13959 9.6983 7.19435C9.79115 7.24911 9.90195 7.26474 10.0063 7.23781C10.1107 7.21087 10.2001 7.14357 10.2549 7.05072C10.3096 6.95787 10.3253 6.84707 10.2983 6.74269C10.1486 6.16254 9.85863 5.62808 9.45388 5.18631C9.04913 4.74454 8.54202 4.40901 7.97716 4.20923C7.41229 4.00946 6.80699 3.95156 6.21449 4.04063C5.622 4.1297 5.06048 4.36301 4.57932 4.72004C4.09816 5.07707 3.71212 5.54687 3.45515 6.08812C3.19818 6.62937 3.07816 7.22547 3.10564 7.82399C3.13313 8.42251 3.30728 9.0051 3.61278 9.52052C3.91828 10.0359 4.34576 10.4684 4.85762 10.7798C3.53762 11.1807 2.38081 11.9941 1.55684 13.1005C1.49219 13.1867 1.46443 13.295 1.47967 13.4017C1.49491 13.5084 1.55189 13.6046 1.63809 13.6693C1.72428 13.7339 1.83263 13.7617 1.93929 13.7464C2.04595 13.7312 2.14219 13.6742 2.20684 13.588C2.73412 12.879 3.42057 12.3037 4.21087 11.9086C5.00118 11.5134 5.87325 11.3094 6.75684 11.313C6.86458 11.313 6.96791 11.2702 7.0441 11.194C7.12029 11.1178 7.16309 11.0145 7.16309 10.9068C7.16309 10.799 7.12029 10.6957 7.0441 10.6195C6.96791 10.5433 6.86458 10.5005 6.75684 10.5005Z" fill="#373737" fill-opacity="0.99"/>
</svg>
