<svg width="26" height="26" viewBox="0 0 26 26" fill="none" xmlns="http://www.w3.org/2000/svg">
<path d="M7.04199 5.66675H18.958C19.5273 5.66675 20.014 6.00613 20.2227 6.48413L20.2607 6.58179L22.5 13.0417V13.4597C21.5976 13.0098 20.575 12.7498 19.5 12.7498C15.7762 12.7498 12.7502 15.776 12.75 19.4998C12.75 19.7854 12.7785 20.0627 12.8135 20.3337H6.25V21.6667C6.25 22.1244 5.87461 22.4996 5.41699 22.4998H4.33301C3.87539 22.4996 3.5 22.1244 3.5 21.6667V13.0417L5.73926 6.58179C5.92153 6.05321 6.43479 5.66675 7.04199 5.66675ZM19.25 18.6667H23.583V20.3337H19.25V22.1462L16.6035 19.4998L19.25 16.8533V18.6667ZM7.04199 13.8337C6.00475 13.8337 5.16699 14.6715 5.16699 15.7087C5.16717 16.7458 6.00486 17.5837 7.04199 17.5837C8.07897 17.5836 8.91682 16.7457 8.91699 15.7087C8.91699 14.6716 8.07908 13.8339 7.04199 13.8337ZM6.80469 6.96265L5.17969 11.8376L5.06934 12.1667H20.9307L20.8203 11.8376L19.1953 6.96265L19.1387 6.79175H6.86133L6.80469 6.96265Z" stroke="#C72B00" stroke-width="0.5"/>
</svg>
