<svg width="50" height="50" viewBox="0 0 50 50" fill="none" xmlns="http://www.w3.org/2000/svg">
<rect width="50" height="50" rx="25" fill="#C8C8C8" fill-opacity="0.25"/>
<path d="M16.55 31.5791C16.55 31.5791 16.4449 32.397 16.55 32.7859C16.6231 33.0557 16.693 33.5101 16.9725 33.5101H18.5417C18.8212 33.5101 18.8911 33.0557 18.9642 32.7859C19.0693 32.3976 18.9642 31.5791 18.9642 31.5791" stroke="#373737" stroke-width="0.6" stroke-linecap="round" stroke-linejoin="round"/>
<path d="M33.1483 23.7324H16.8517C15.5184 23.7324 14.4375 24.8133 14.4375 26.1466V29.1648C14.4375 30.4981 15.5184 31.579 16.8517 31.579H33.1483C34.4816 31.579 35.5625 30.4981 35.5625 29.1648V26.1466C35.5625 24.8133 34.4816 23.7324 33.1483 23.7324Z" stroke="#373737" stroke-width="0.6" stroke-linecap="round" stroke-linejoin="round"/>
<path d="M31.0358 31.5791C31.0358 31.5791 30.9307 32.397 31.0358 32.7859C31.1089 33.0557 31.1788 33.5101 31.4583 33.5101H33.0275C33.307 33.5101 33.3769 33.0557 33.45 32.7859C33.5551 32.3976 33.45 31.5791 33.45 31.5791" stroke="#373737" stroke-width="0.6" stroke-linecap="round" stroke-linejoin="round"/>
<path d="M17.7574 29.165C18.4242 29.165 18.9647 28.6244 18.9647 27.9576C18.9647 27.2908 18.4242 26.7502 17.7574 26.7502C17.0905 26.7502 16.55 27.2908 16.55 27.9576C16.55 28.6244 17.0905 29.165 17.7574 29.165Z" stroke="#373737" stroke-width="0.6" stroke-linecap="round" stroke-linejoin="round"/>
<path d="M16.8517 23.7324L18.24 18.3C18.4772 17.3722 19.5145 16.4893 20.4733 16.4893H29.5267C30.4854 16.4893 31.5227 17.3722 31.76 18.3L33.1483 23.7324" stroke="#373737" stroke-width="0.6" stroke-linecap="round" stroke-linejoin="round"/>
<path d="M32.2427 29.165C32.9095 29.165 33.45 28.6244 33.45 27.9576C33.45 27.2908 32.9095 26.7502 32.2427 26.7502C31.5758 26.7502 31.0353 27.2908 31.0353 27.9576C31.0353 28.6244 31.5758 29.165 32.2427 29.165Z" stroke="#373737" stroke-width="0.6" stroke-linecap="round" stroke-linejoin="round"/>
</svg>
